<svg width="25" height="25" viewBox="0 0 25 25" fill="none" xmlns="http://www.w3.org/2000/svg">
<path d="M18.75 13.5417H13.5416V18.75C13.5416 19.3229 13.0729 19.7917 12.5 19.7917C11.9271 19.7917 11.4583 19.3229 11.4583 18.75V13.5417H6.24998C5.67706 13.5417 5.20831 13.0729 5.20831 12.5C5.20831 11.9271 5.67706 11.4583 6.24998 11.4583H11.4583V6.25001C11.4583 5.67709 11.9271 5.20834 12.5 5.20834C13.0729 5.20834 13.5416 5.67709 13.5416 6.25001V11.4583H18.75C19.3229 11.4583 19.7916 11.9271 19.7916 12.5C19.7916 13.0729 19.3229 13.5417 18.75 13.5417Z" fill="black"/>
</svg>
