<svg width="24" height="24" viewBox="0 0 24 24" fill="none" xmlns="http://www.w3.org/2000/svg">
<path d="M12.5 12.55L14.675 14.725C14.8125 14.8625 14.9875 14.9312 15.2 14.9312C15.4125 14.9312 15.5875 14.8625 15.725 14.725C15.8625 14.5875 15.9312 14.4125 15.9312 14.2C15.9312 13.9875 15.8625 13.8125 15.725 13.675L13.55 11.5L15.725 9.325C15.8625 9.1875 15.9312 9.0125 15.9312 8.8C15.9312 8.5875 15.8625 8.4125 15.725 8.275C15.5875 8.1375 15.4125 8.06875 15.2 8.06875C14.9875 8.06875 14.8125 8.1375 14.675 8.275L12.5 10.45L10.325 8.275C10.1875 8.1375 10.0125 8.06875 9.8 8.06875C9.5875 8.06875 9.4125 8.1375 9.275 8.275C9.1375 8.4125 9.06875 8.5875 9.06875 8.8C9.06875 9.0125 9.1375 9.1875 9.275 9.325L11.45 11.5L9.275 13.675C9.1375 13.8125 9.06875 13.9875 9.06875 14.2C9.06875 14.4125 9.1375 14.5875 9.275 14.725C9.4125 14.8625 9.5875 14.9312 9.8 14.9312C10.0125 14.9312 10.1875 14.8625 10.325 14.725L12.5 12.55ZM12.5 19C11.4625 19 10.4875 18.803 9.575 18.409C8.6625 18.015 7.86875 17.4807 7.19375 16.8062C6.51875 16.1317 5.9845 15.338 5.591 14.425C5.1975 13.512 5.0005 12.537 5 11.5C4.9995 10.463 5.1965 9.488 5.591 8.575C5.9855 7.662 6.51975 6.86825 7.19375 6.19375C7.86775 5.51925 8.6615 4.985 9.575 4.591C10.4885 4.197 11.4635 4 12.5 4C13.5365 4 14.5115 4.197 15.425 4.591C16.3385 4.985 17.1322 5.51925 17.8062 6.19375C18.4802 6.86825 19.0147 7.662 19.4097 8.575C19.8047 9.488 20.0015 10.463 20 11.5C19.9985 12.537 19.8015 13.512 19.409 14.425C19.0165 15.338 18.4822 16.1317 17.8062 16.8062C17.1302 17.4807 16.3365 18.0152 15.425 18.4097C14.5135 18.8042 13.5385 19.001 12.5 19Z" fill="#838383"/>
</svg>
