<svg width="262" height="43" viewBox="0 0 262 43" fill="none" xmlns="http://www.w3.org/2000/svg">
<path d="M24.1008 3.60474L32.8176 29.3327C33.176 30.3823 33.304 31.4319 33.2016 32.4815C33.1248 33.5055 32.856 34.4655 32.3952 35.3615C31.96 36.2831 31.3456 37.0895 30.552 37.7807C29.784 38.4975 28.888 39.0351 27.864 39.3935C26.8144 39.7519 25.7648 39.8799 24.7152 39.7775C23.6656 39.7007 22.68 39.4319 21.7584 38.9711C20.8624 38.5359 20.056 37.9215 19.3392 37.1279C18.648 36.3599 18.1232 35.4511 17.7648 34.4015C17.4832 33.5055 17.3424 32.6351 17.3424 31.7903L17.6496 4.64154C17.6496 3.71994 17.9696 2.93914 18.6096 2.29914C19.2752 1.65914 20.0688 1.33914 20.9904 1.33914C21.7328 1.36474 22.3728 1.58234 22.9104 1.99194C23.4736 2.40154 23.8704 2.93914 24.1008 3.60474ZM12.504 4.44954L14.5008 31.4063C14.5776 32.3535 14.4624 33.2623 14.1552 34.1327C13.848 35.0031 13.4 35.7711 12.8112 36.4367C12.248 37.1023 11.5568 37.6399 10.7376 38.0495C9.91838 38.4847 9.03518 38.7407 8.08798 38.8175C7.11518 38.8943 6.19358 38.7791 5.32318 38.4719C4.47838 38.1903 3.71038 37.7551 3.01918 37.1663C2.35358 36.5775 1.80318 35.8735 1.36798 35.0543C0.958376 34.2607 0.715176 33.3775 0.638376 32.4047C0.587176 31.7903 0.625576 31.1759 0.753576 30.5615L5.97598 4.06554C6.05278 3.60474 6.21918 3.19514 6.47518 2.83674C6.73118 2.47834 7.02558 2.18394 7.35838 1.95354C7.71678 1.72314 8.10078 1.56954 8.51038 1.49274C8.94558 1.39034 9.39358 1.37754 9.85438 1.45434C10.5968 1.60794 11.2112 1.96634 11.6976 2.52954C12.184 3.09274 12.4528 3.73274 12.504 4.44954ZM22.6416 24.4175L9.93118 22.2287C9.18878 22.1007 8.59998 21.7423 8.16478 21.1535C7.75518 20.5391 7.61438 19.8607 7.74238 19.1183C7.84478 18.5295 8.10078 18.0431 8.51038 17.6591C8.91998 17.2751 9.39358 17.0319 9.93118 16.9295L22.6416 14.7407C23.3072 14.6383 23.9472 14.6639 24.5616 14.8175C25.2016 14.9455 25.7776 15.2015 26.2896 15.5855C26.8016 15.9439 27.224 16.3919 27.5568 16.9295C27.9152 17.4671 28.1584 18.0687 28.2864 18.7343C28.3888 19.3999 28.3632 20.0527 28.2096 20.6927C28.0816 21.3327 27.8384 21.9087 27.48 22.4207C27.1216 22.9327 26.6608 23.3679 26.0976 23.7263C25.56 24.0847 24.9584 24.3151 24.2928 24.4175C23.7296 24.4943 23.1792 24.4943 22.6416 24.4175ZM53.7486 12.6287L60.5454 30.5615C60.8782 31.5087 61.019 32.4559 60.9678 33.4031C60.9422 34.3503 60.7374 35.2463 60.3534 36.0911C59.9694 36.9359 59.4318 37.6911 58.7406 38.3567C58.0494 39.0223 57.243 39.5343 56.3214 39.8927C55.3998 40.2511 54.4526 40.4047 53.4798 40.3535C52.5326 40.3279 51.6366 40.1231 50.7918 39.7391C49.947 39.3551 49.1918 38.8175 48.5262 38.1263C47.8606 37.4351 47.3486 36.6287 46.9902 35.7071C46.5806 34.5807 46.4398 33.4799 46.5678 32.4047L48.5262 13.3199C48.603 12.5775 48.923 11.9759 49.4862 11.5151C50.075 11.0287 50.7406 10.8239 51.483 10.9007C52.0206 10.9519 52.4814 11.1439 52.8654 11.4767C53.275 11.7839 53.5694 12.1679 53.7486 12.6287ZM43.803 14.1647L43.4574 15.2015C43.4062 15.3807 43.3422 15.5471 43.2654 15.7007C43.2142 15.8543 43.163 16.0207 43.1118 16.1999C43.0606 16.3791 43.0094 16.5583 42.9582 16.7375C42.907 16.8911 42.8558 17.0575 42.8046 17.2367C42.7534 17.4159 42.7022 17.5823 42.651 17.7359C42.5998 17.8895 42.5486 18.0559 42.4974 18.2351C42.3182 18.8495 42.1646 19.5151 42.0366 20.2319C41.9598 20.5391 41.8958 20.8591 41.8446 21.1919C41.819 21.4991 41.7806 21.8063 41.7294 22.1135C41.7038 22.2671 41.691 22.4207 41.691 22.5743C41.691 22.7023 41.691 22.8431 41.691 22.9967C41.6654 23.3039 41.6654 23.5855 41.691 23.8415C41.691 24.3279 41.755 24.8271 41.883 25.3391C41.9086 25.4671 41.9342 25.5823 41.9598 25.6847C41.9854 25.7615 42.0238 25.8511 42.075 25.9535C42.1262 26.0303 42.1646 26.1199 42.1902 26.2223C42.2158 26.2991 42.2542 26.3631 42.3054 26.4143C42.4334 26.6703 42.6126 26.8879 42.843 27.0671C42.8942 27.1183 42.9454 27.1567 42.9966 27.1823C43.0478 27.2079 43.099 27.2463 43.1502 27.2975C43.2014 27.3231 43.3038 27.3615 43.4574 27.4127C43.5598 27.4895 43.675 27.5279 43.803 27.5279L44.1486 27.6431C44.2766 27.6687 44.4174 27.6815 44.571 27.6815C44.7246 27.6815 44.8782 27.6943 45.0318 27.7199C45.1598 27.7199 45.3006 27.7199 45.4542 27.7199C45.6334 27.6943 45.787 27.6687 45.915 27.6431C46.0686 27.6175 46.2094 27.5919 46.3374 27.5663C46.491 27.5407 46.6318 27.5023 46.7598 27.4511C46.8878 27.3999 46.9902 27.3615 47.067 27.3359C47.1694 27.2847 47.2462 27.2463 47.2974 27.2207C47.3998 27.1695 47.4638 27.1439 47.4894 27.1439H47.6046C47.6302 27.1439 47.6558 27.1567 47.6814 27.1823C47.7326 27.1823 47.7966 27.1695 47.8734 27.1439L53.6334 25.6079C54.7086 25.3263 55.707 25.4543 56.6286 25.9919C57.5758 26.5295 58.1902 27.3359 58.4718 28.4111C58.6254 29.0255 58.651 29.6143 58.5486 30.1775C58.4974 30.3567 58.4462 30.5359 58.395 30.7151C58.3694 30.8687 58.331 31.0351 58.2798 31.2143C58.2542 31.3167 58.2286 31.4063 58.203 31.4831C58.1774 31.5599 58.139 31.6495 58.0878 31.7519C58.0366 31.9055 57.9726 32.0719 57.8958 32.2511C57.563 32.9935 57.2046 33.6463 56.8206 34.2095C56.3598 34.8239 55.8862 35.3615 55.3998 35.8223C55.1182 36.0783 54.8366 36.3087 54.555 36.5135C54.299 36.7439 54.0302 36.9615 53.7486 37.1663C53.1854 37.5247 52.5966 37.8319 51.9822 38.0879C51.3934 38.3695 50.8046 38.6127 50.2158 38.8175C49.0382 39.1503 47.8222 39.3423 46.5678 39.3935C45.3646 39.4447 44.1614 39.3295 42.9582 39.0479C41.755 38.8175 40.603 38.3951 39.5022 37.7807C39.2206 37.6527 38.9518 37.4991 38.6958 37.3199C38.4398 37.1663 38.171 36.9999 37.8894 36.8207C37.6334 36.6159 37.3774 36.4111 37.1214 36.2063C36.891 36.0015 36.6606 35.7839 36.4302 35.5535C35.9182 35.0927 35.483 34.6063 35.1246 34.0943C34.7406 33.6079 34.395 33.0703 34.0878 32.4815C33.7806 31.8927 33.5246 31.3167 33.3198 30.7535C33.1406 30.1647 32.987 29.5759 32.859 28.9871C32.8078 28.6799 32.7566 28.3855 32.7054 28.1039C32.6798 27.8223 32.667 27.5407 32.667 27.2591C32.6414 26.6959 32.6414 26.1455 32.667 25.6079C32.6926 25.0703 32.7438 24.5455 32.8206 24.0335C32.8974 23.5215 32.9998 23.0351 33.1278 22.5743C33.2046 22.3183 33.2686 22.0751 33.3198 21.8447C33.3966 21.6143 33.4734 21.3967 33.5502 21.1919C33.627 20.9615 33.7038 20.7439 33.7806 20.5391C33.883 20.3087 33.9726 20.0911 34.0494 19.8863C34.4078 19.0415 34.8046 18.2479 35.2398 17.5055C35.7006 16.7375 36.1742 16.0207 36.6606 15.3551C36.7886 15.1759 36.9166 15.0095 37.0446 14.8559C37.1726 14.6767 37.3006 14.4975 37.4286 14.3183C37.5566 14.1647 37.6846 14.0111 37.8126 13.8575C37.9406 13.7039 38.0686 13.5375 38.1966 13.3583L39.003 12.4367L39.2334 12.2447L39.4254 12.0143L39.6558 11.7839L39.771 11.6687L39.8478 11.5919C40.3342 11.1311 40.9102 10.9007 41.5758 10.9007C42.2414 10.9007 42.8046 11.1439 43.2654 11.6303C43.6238 11.9887 43.8414 12.3855 43.9182 12.8207C43.995 13.2559 43.9694 13.6911 43.8414 14.1263L43.803 14.1647ZM59.8938 30.9455L63.7722 13.4735C63.8746 13.0383 64.0538 12.6415 64.3098 12.2831C64.5658 11.9247 64.8602 11.6431 65.193 11.4383C65.5514 11.2079 65.9482 11.0543 66.3834 10.9775C66.8186 10.8751 67.2538 10.8751 67.689 10.9775C68.2266 11.1055 68.6874 11.3359 69.0714 11.6687C69.481 12.0015 69.7882 12.3983 69.993 12.8591L77.2506 29.1791C77.7626 30.3311 78.0186 31.5215 78.0186 32.7503C78.0442 33.9791 77.8394 35.1439 77.4042 36.2447C76.9946 37.3455 76.3802 38.3439 75.561 39.2399C74.7418 40.1359 73.7562 40.8399 72.6042 41.3519C71.4522 41.8639 70.2618 42.1199 69.033 42.1199C67.8042 42.1455 66.6394 41.9407 65.5386 41.5055C64.4378 41.0959 63.4394 40.4687 62.5434 39.6239C61.6474 38.8047 60.9434 37.8191 60.4314 36.6671C60.0218 35.7199 59.7786 34.7599 59.7018 33.7871C59.625 32.8143 59.689 31.8671 59.8938 30.9455ZM78.057 21.2687C78.0826 21.2943 78.0954 21.2943 78.0954 21.2687V21.1919V20.9999C78.0954 20.9487 78.0826 20.8847 78.057 20.8079C78.057 20.7311 78.057 20.6671 78.057 20.6159C78.0314 20.4879 78.0058 20.3599 77.9802 20.2319C77.9546 20.0783 77.9162 19.9375 77.865 19.8095C77.8394 19.6815 77.8138 19.5663 77.7882 19.4639C77.7626 19.3615 77.7242 19.2463 77.673 19.1183C77.5706 18.8623 77.4938 18.6831 77.4426 18.5807L77.2506 18.1967C77.1482 18.0431 77.0586 17.9279 76.9818 17.8511C76.905 17.7743 76.7642 17.6975 76.5594 17.6207C76.3034 17.5695 76.073 17.5439 75.8682 17.5439C75.6122 17.5439 75.3306 17.5823 75.0234 17.6591C74.8442 17.7103 74.6778 17.7615 74.5242 17.8127C74.3706 17.8639 74.2042 17.9151 74.025 17.9663C73.3338 18.2479 72.6554 18.5935 71.9898 19.0031C71.6314 19.2079 71.2858 19.4255 70.953 19.6559C70.6458 19.8863 70.313 20.1295 69.9546 20.3855C69.289 20.8975 68.6362 21.4351 67.9962 21.9983C67.7658 22.2031 67.497 22.2927 67.1898 22.2671C66.8826 22.2415 66.6266 22.1135 66.4218 21.8831C66.089 21.4991 66.0506 21.0767 66.3066 20.6159C66.7162 19.8479 67.177 19.0799 67.689 18.3119C67.945 17.9279 68.201 17.5439 68.457 17.1599C68.7386 16.7759 69.0202 16.4047 69.3018 16.0463C69.609 15.6879 69.929 15.3295 70.2618 14.9711C70.5946 14.6127 70.953 14.2543 71.337 13.8959C71.7722 13.5119 72.1946 13.1791 72.6042 12.8975C73.065 12.5647 73.5642 12.2703 74.1018 12.0143C74.5882 11.7839 75.1898 11.5791 75.9066 11.3999C76.649 11.2463 77.3658 11.1823 78.057 11.2079C78.8506 11.2847 79.593 11.4383 80.2842 11.6687C80.6426 11.7967 80.9882 11.9503 81.321 12.1295C81.6538 12.2831 81.9738 12.4623 82.281 12.6671C82.8954 13.0767 83.4202 13.4991 83.8554 13.9343C84.1114 14.1647 84.3418 14.3951 84.5466 14.6255C84.7514 14.8559 84.9562 15.0863 85.161 15.3167C85.545 15.8287 85.8906 16.3279 86.1978 16.8143C86.377 17.0959 86.5306 17.3647 86.6586 17.6207C86.7098 17.6975 86.7866 17.8383 86.889 18.0431L87.0042 18.2735C87.0298 18.2991 87.0426 18.3247 87.0426 18.3503C87.0426 18.3503 87.0554 18.3631 87.081 18.3887V18.4655L87.1194 18.5039V18.5423C87.4266 19.1311 87.593 19.7455 87.6186 20.3855C87.6698 21.0255 87.593 21.6399 87.3882 22.2287C87.209 22.7919 86.9146 23.3167 86.505 23.8031C86.0954 24.2895 85.5962 24.6863 85.0074 24.9935C84.4186 25.3007 83.8042 25.4799 83.1642 25.5311C82.5498 25.5567 81.9482 25.4799 81.3594 25.3007C80.7706 25.0959 80.233 24.8015 79.7466 24.4175C79.2602 24.0079 78.8634 23.5087 78.5562 22.9199C78.3002 22.4079 78.1338 21.8703 78.057 21.3071V21.2687ZM85.9938 30.9455L89.8722 13.4735C89.9746 13.0383 90.1538 12.6415 90.4098 12.2831C90.6658 11.9247 90.9602 11.6431 91.293 11.4383C91.6514 11.2079 92.0482 11.0543 92.4834 10.9775C92.9186 10.8751 93.3538 10.8751 93.789 10.9775C94.3266 11.1055 94.7874 11.3359 95.1714 11.6687C95.581 12.0015 95.8882 12.3983 96.093 12.8591L103.351 29.1791C103.863 30.3311 104.119 31.5215 104.119 32.7503C104.144 33.9791 103.939 35.1439 103.504 36.2447C103.095 37.3455 102.48 38.3439 101.661 39.2399C100.842 40.1359 99.8562 40.8399 98.7042 41.3519C97.5522 41.8639 96.3618 42.1199 95.133 42.1199C93.9042 42.1455 92.7394 41.9407 91.6386 41.5055C90.5378 41.0959 89.5394 40.4687 88.6434 39.6239C87.7474 38.8047 87.0434 37.8191 86.5314 36.6671C86.1218 35.7199 85.8786 34.7599 85.8018 33.7871C85.725 32.8143 85.789 31.8671 85.9938 30.9455ZM104.157 21.2687C104.183 21.2943 104.195 21.2943 104.195 21.2687V21.1919V20.9999C104.195 20.9487 104.183 20.8847 104.157 20.8079C104.157 20.7311 104.157 20.6671 104.157 20.6159C104.131 20.4879 104.106 20.3599 104.08 20.2319C104.055 20.0783 104.016 19.9375 103.965 19.8095C103.939 19.6815 103.914 19.5663 103.888 19.4639C103.863 19.3615 103.824 19.2463 103.773 19.1183C103.671 18.8623 103.594 18.6831 103.543 18.5807L103.351 18.1967C103.248 18.0431 103.159 17.9279 103.082 17.8511C103.005 17.7743 102.864 17.6975 102.659 17.6207C102.403 17.5695 102.173 17.5439 101.968 17.5439C101.712 17.5439 101.431 17.5823 101.123 17.6591C100.944 17.7103 100.778 17.7615 100.624 17.8127C100.471 17.8639 100.304 17.9151 100.125 17.9663C99.4338 18.2479 98.7554 18.5935 98.0898 19.0031C97.7314 19.2079 97.3858 19.4255 97.053 19.6559C96.7458 19.8863 96.413 20.1295 96.0546 20.3855C95.389 20.8975 94.7362 21.4351 94.0962 21.9983C93.8658 22.2031 93.597 22.2927 93.2898 22.2671C92.9826 22.2415 92.7266 22.1135 92.5218 21.8831C92.189 21.4991 92.1506 21.0767 92.4066 20.6159C92.8162 19.8479 93.277 19.0799 93.789 18.3119C94.045 17.9279 94.301 17.5439 94.557 17.1599C94.8386 16.7759 95.1202 16.4047 95.4018 16.0463C95.709 15.6879 96.029 15.3295 96.3618 14.9711C96.6946 14.6127 97.053 14.2543 97.437 13.8959C97.8722 13.5119 98.2946 13.1791 98.7042 12.8975C99.165 12.5647 99.6642 12.2703 100.202 12.0143C100.688 11.7839 101.29 11.5791 102.007 11.3999C102.749 11.2463 103.466 11.1823 104.157 11.2079C104.951 11.2847 105.693 11.4383 106.384 11.6687C106.743 11.7967 107.088 11.9503 107.421 12.1295C107.754 12.2831 108.074 12.4623 108.381 12.6671C108.995 13.0767 109.52 13.4991 109.955 13.9343C110.211 14.1647 110.442 14.3951 110.647 14.6255C110.851 14.8559 111.056 15.0863 111.261 15.3167C111.645 15.8287 111.991 16.3279 112.298 16.8143C112.477 17.0959 112.631 17.3647 112.759 17.6207C112.81 17.6975 112.887 17.8383 112.989 18.0431L113.104 18.2735C113.13 18.2991 113.143 18.3247 113.143 18.3503C113.143 18.3503 113.155 18.3631 113.181 18.3887V18.4655L113.219 18.5039V18.5423C113.527 19.1311 113.693 19.7455 113.719 20.3855C113.77 21.0255 113.693 21.6399 113.488 22.2287C113.309 22.7919 113.015 23.3167 112.605 23.8031C112.195 24.2895 111.696 24.6863 111.107 24.9935C110.519 25.3007 109.904 25.4799 109.264 25.5311C108.65 25.5567 108.048 25.4799 107.459 25.3007C106.871 25.0959 106.333 24.8015 105.847 24.4175C105.36 24.0079 104.963 23.5087 104.656 22.9199C104.4 22.4079 104.234 21.8703 104.157 21.3071V21.2687ZM155.908 11.2463L155.87 11.2079H155.831V11.1695H155.793L155.716 11.1311C155.665 11.1055 155.627 11.0927 155.601 11.0927C155.575 11.0927 155.55 11.0799 155.524 11.0543C155.396 11.0031 155.255 10.9519 155.102 10.9007C154.974 10.8495 154.833 10.7983 154.679 10.7471C154.551 10.6959 154.423 10.6447 154.295 10.5935C154.014 10.5167 153.732 10.4655 153.451 10.4399C153.195 10.3887 152.926 10.3375 152.644 10.2863C152.363 10.2607 152.094 10.2479 151.838 10.2479C151.582 10.2223 151.313 10.2223 151.031 10.2479L150.225 10.3631C150.097 10.3887 149.969 10.4143 149.841 10.4399C149.713 10.4399 149.585 10.4655 149.457 10.5167C148.484 10.7727 147.588 11.2079 146.769 11.8223C146.001 12.4111 145.361 13.0895 144.849 13.8575C144.593 14.2415 144.375 14.6383 144.196 15.0479C144.043 15.4575 143.902 15.8671 143.774 16.2767C143.543 17.0959 143.428 17.9023 143.428 18.6959C143.428 18.9007 143.428 19.1055 143.428 19.3103C143.454 19.4895 143.479 19.6815 143.505 19.8863C143.531 20.2703 143.607 20.6543 143.735 21.0383C143.838 21.3967 143.966 21.7423 144.119 22.0751C144.273 22.4079 144.452 22.7151 144.657 22.9967C145.067 23.6111 145.515 24.1231 146.001 24.5327C146.487 24.9935 147.025 25.3775 147.614 25.6847C147.844 25.8127 148.126 25.9407 148.459 26.0687C148.612 26.1455 148.766 26.2095 148.919 26.2607C149.073 26.2863 149.227 26.3247 149.38 26.3759C149.585 26.4271 149.751 26.4655 149.879 26.4911C150.084 26.5423 150.251 26.5679 150.379 26.5679C150.558 26.5935 150.724 26.6063 150.878 26.6063C151.057 26.6063 151.236 26.6063 151.415 26.6063C151.748 26.6063 152.107 26.5679 152.491 26.4911C152.593 26.4655 152.772 26.4271 153.028 26.3759C153.079 26.3503 153.118 26.3375 153.143 26.3375C153.195 26.3375 153.246 26.3247 153.297 26.2991C153.348 26.2735 153.387 26.2607 153.412 26.2607C153.463 26.2607 153.515 26.2479 153.566 26.2223C154.308 25.9663 155.051 25.5823 155.793 25.0703C155.972 24.9423 156.151 24.8143 156.331 24.6863C156.51 24.5327 156.689 24.3663 156.868 24.1871C157.201 23.8799 157.521 23.5215 157.828 23.1119C158.187 22.6767 158.481 22.2543 158.711 21.8447C158.788 21.7167 158.852 21.6015 158.903 21.4991C158.98 21.3711 159.057 21.2431 159.134 21.1151C159.185 21.0639 159.211 21.0127 159.211 20.9615C159.236 20.8847 159.275 20.8079 159.326 20.7311L159.518 20.3471L159.748 19.8479C160.158 19.0031 160.798 18.4271 161.668 18.1199C162.539 17.8127 163.396 17.8639 164.241 18.2735C164.727 18.5039 165.111 18.8239 165.393 19.2335C165.7 19.6175 165.918 20.0527 166.046 20.5391C166.251 21.4351 166.353 22.3567 166.353 23.3039C166.379 24.2255 166.315 25.1599 166.161 26.1071C165.956 27.1055 165.687 28.0527 165.355 28.9487C164.996 29.9215 164.561 30.8047 164.049 31.5983C163.537 32.4687 162.935 33.2879 162.244 34.0559C161.553 34.8239 160.798 35.5279 159.979 36.1679C159.723 36.3727 159.505 36.5391 159.326 36.6671C159.223 36.7439 159.121 36.8079 159.019 36.8591C158.916 36.9359 158.801 37.0127 158.673 37.0895C158.468 37.2431 158.251 37.3839 158.02 37.5119C157.79 37.6399 157.547 37.7679 157.291 37.8959C156.83 38.1519 156.343 38.3695 155.831 38.5487C155.319 38.7535 154.807 38.9327 154.295 39.0863C153.783 39.2399 153.259 39.3679 152.721 39.4703C152.209 39.5983 151.671 39.6879 151.108 39.7391C150.571 39.8159 150.033 39.8543 149.495 39.8543C149.214 39.8543 148.932 39.8543 148.651 39.8543C148.395 39.8543 148.126 39.8415 147.844 39.8159C146.795 39.7391 145.707 39.5599 144.58 39.2783C143.505 38.9711 142.468 38.5871 141.47 38.1263C140.471 37.6655 139.524 37.1023 138.628 36.4367C138.193 36.1039 137.771 35.7583 137.361 35.3999C136.951 35.0415 136.555 34.6703 136.171 34.2863C134.635 32.6735 133.444 30.8815 132.599 28.9103C132.164 27.9119 131.819 26.9007 131.563 25.8767C131.307 24.8527 131.14 23.8031 131.063 22.7279C130.987 21.6783 130.987 20.6415 131.063 19.6175C131.115 19.1055 131.179 18.5935 131.255 18.0815C131.332 17.5695 131.435 17.0575 131.563 16.5455C131.819 15.5215 132.151 14.5487 132.561 13.6271C132.996 12.6799 133.508 11.7839 134.097 10.9391C135.223 9.27514 136.606 7.85434 138.244 6.67674C138.654 6.39514 139.063 6.12634 139.473 5.87034C139.908 5.61434 140.343 5.37114 140.779 5.14074C141.598 4.73114 142.494 4.38554 143.467 4.10394L144.849 3.75834L146.231 3.52794C146.487 3.50234 146.731 3.48954 146.961 3.48954C147.191 3.46394 147.422 3.43834 147.652 3.41274H149.035C149.265 3.43834 149.495 3.46394 149.726 3.48954C149.956 3.48954 150.174 3.51514 150.379 3.56634C150.865 3.61754 151.313 3.69434 151.723 3.79674C152.593 3.97594 153.451 4.23194 154.295 4.56474C154.731 4.74394 155.14 4.93594 155.524 5.14074C155.908 5.34554 156.279 5.56314 156.638 5.79354C157.047 6.02394 157.406 6.26714 157.713 6.52314C157.79 6.57434 157.867 6.63834 157.943 6.71514C158.046 6.79194 158.135 6.85594 158.212 6.90714L158.443 7.13754L158.596 7.25274L158.635 7.29114L158.673 7.32954C159.185 7.79034 159.441 8.35354 159.441 9.01914C159.467 9.68474 159.262 10.2607 158.827 10.7471C158.443 11.1567 157.982 11.4127 157.444 11.5151C156.907 11.5919 156.395 11.5023 155.908 11.2463ZM181.405 9.86394C183.504 9.86394 185.475 10.2607 187.318 11.0543C189.187 11.8479 190.813 12.9359 192.195 14.3183C193.577 15.7007 194.665 17.3263 195.459 19.1951C196.253 21.0383 196.649 23.0095 196.649 25.1087C196.649 27.2079 196.253 29.1791 195.459 31.0223C194.665 32.8655 193.577 34.4783 192.195 35.8607C190.813 37.2431 189.187 38.3311 187.318 39.1247C185.475 39.9183 183.504 40.3151 181.405 40.3151C179.305 40.3151 177.334 39.9183 175.491 39.1247C173.648 38.3311 172.035 37.2431 170.653 35.8607C169.27 34.4783 168.182 32.8655 167.389 31.0223C166.595 29.1791 166.198 27.2079 166.198 25.1087C166.198 23.0095 166.595 21.0383 167.389 19.1951C168.182 17.3263 169.27 15.7007 170.653 14.3183C172.035 12.9359 173.648 11.8479 175.491 11.0543C177.334 10.2607 179.305 9.86394 181.405 9.86394ZM181.942 23.1503C182.761 23.1503 183.529 23.0479 184.246 22.8431C184.963 22.6383 185.59 22.3567 186.128 21.9983C186.665 21.6399 187.088 21.2175 187.395 20.7311C187.702 20.2447 187.856 19.7327 187.856 19.1951C187.856 18.6575 187.702 18.1455 187.395 17.6591C187.088 17.1727 186.665 16.7503 186.128 16.3919C185.59 16.0335 184.963 15.7519 184.246 15.5471C183.529 15.3423 182.761 15.2399 181.942 15.2399C181.123 15.2399 180.355 15.3423 179.638 15.5471C178.947 15.7519 178.333 16.0335 177.795 16.3919C177.257 16.7503 176.835 17.1727 176.528 17.6591C176.221 18.1455 176.067 18.6575 176.067 19.1951C176.067 19.7327 176.221 20.2447 176.528 20.7311C176.835 21.2175 177.257 21.6399 177.795 21.9983C178.333 22.3567 178.947 22.6383 179.638 22.8431C180.355 23.0479 181.123 23.1503 181.942 23.1503ZM211.93 9.86394C214.029 9.86394 216 10.2607 217.843 11.0543C219.712 11.8479 221.338 12.9359 222.72 14.3183C224.102 15.7007 225.19 17.3263 225.984 19.1951C226.778 21.0383 227.174 23.0095 227.174 25.1087C227.174 27.2079 226.778 29.1791 225.984 31.0223C225.19 32.8655 224.102 34.4783 222.72 35.8607C221.338 37.2431 219.712 38.3311 217.843 39.1247C216 39.9183 214.029 40.3151 211.93 40.3151C209.83 40.3151 207.859 39.9183 206.016 39.1247C204.173 38.3311 202.56 37.2431 201.178 35.8607C199.795 34.4783 198.707 32.8655 197.914 31.0223C197.12 29.1791 196.723 27.2079 196.723 25.1087C196.723 23.0095 197.12 21.0383 197.914 19.1951C198.707 17.3263 199.795 15.7007 201.178 14.3183C202.56 12.9359 204.173 11.8479 206.016 11.0543C207.859 10.2607 209.83 9.86394 211.93 9.86394ZM212.467 23.1503C213.286 23.1503 214.054 23.0479 214.771 22.8431C215.488 22.6383 216.115 22.3567 216.653 21.9983C217.19 21.6399 217.613 21.2175 217.92 20.7311C218.227 20.2447 218.381 19.7327 218.381 19.1951C218.381 18.6575 218.227 18.1455 217.92 17.6591C217.613 17.1727 217.19 16.7503 216.653 16.3919C216.115 16.0335 215.488 15.7519 214.771 15.5471C214.054 15.3423 213.286 15.2399 212.467 15.2399C211.648 15.2399 210.88 15.3423 210.163 15.5471C209.472 15.7519 208.858 16.0335 208.32 16.3919C207.782 16.7503 207.36 17.1727 207.053 17.6591C206.746 18.1455 206.592 18.6575 206.592 19.1951C206.592 19.7327 206.746 20.2447 207.053 20.7311C207.36 21.2175 207.782 21.6399 208.32 21.9983C208.858 22.3567 209.472 22.6383 210.163 22.8431C210.88 23.0479 211.648 23.1503 212.467 23.1503ZM241.84 4.64154L243.338 31.7135C243.389 32.8655 243.223 33.9535 242.839 34.9775C242.48 36.0015 241.943 36.9103 241.226 37.7039C240.509 38.4975 239.664 39.1375 238.691 39.6239C237.719 40.1103 236.656 40.3919 235.504 40.4687C234.352 40.5199 233.264 40.3535 232.24 39.9695C231.216 39.6111 230.307 39.0735 229.514 38.3567C228.72 37.6399 228.08 36.7951 227.594 35.8223C227.107 34.8495 226.826 33.7871 226.749 32.6351C226.698 31.8159 226.775 31.0223 226.979 30.2543L233.2 3.87354C233.354 3.28474 233.597 2.75994 233.93 2.29914C234.288 1.83834 234.698 1.46714 235.159 1.18554C235.645 0.878339 236.17 0.673539 236.733 0.571139C237.322 0.468739 237.911 0.481539 238.499 0.609538C239.472 0.839939 240.253 1.33914 240.842 2.10714C241.456 2.84954 241.789 3.69434 241.84 4.64154ZM231.549 22.5743L253.015 10.6319C253.629 10.2735 254.269 10.1967 254.935 10.4015C255.6 10.6063 256.112 11.0159 256.471 11.6303C256.752 12.0911 256.855 12.5903 256.778 13.1279C256.727 13.6399 256.547 14.0879 256.24 14.4719L240.842 33.5951C240.202 34.3887 239.447 35.0031 238.576 35.4383C237.731 35.8991 236.835 36.1807 235.888 36.2831C234.967 36.3855 234.032 36.3087 233.085 36.0527C232.163 35.7967 231.306 35.3487 230.512 34.7087C229.719 34.0687 229.091 33.3263 228.631 32.4815C228.195 31.6111 227.927 30.7151 227.824 29.7935C227.722 28.8463 227.799 27.9119 228.055 26.9903C228.311 26.0431 228.759 25.1727 229.399 24.3791C230.013 23.6111 230.73 23.0095 231.549 22.5743ZM243.799 19.5023L256.893 24.8399C257.917 25.2751 258.787 25.8767 259.504 26.6447C260.247 27.3871 260.81 28.2319 261.194 29.1791C261.603 30.1007 261.821 31.0863 261.847 32.1359C261.872 33.1855 261.68 34.2223 261.271 35.2463C260.835 36.2703 260.234 37.1407 259.466 37.8575C258.723 38.5999 257.879 39.1631 256.931 39.5471C256.01 39.9567 255.024 40.1615 253.975 40.1615C252.925 40.1871 251.888 39.9951 250.864 39.5855C250.275 39.3295 249.712 39.0095 249.175 38.6255C248.663 38.2415 248.202 37.8191 247.792 37.3583L238.653 26.5295C238.269 26.0431 237.987 25.5183 237.808 24.9551C237.629 24.3919 237.565 23.8287 237.616 23.2655C237.667 22.6767 237.821 22.1263 238.077 21.6143C238.359 21.0767 238.73 20.6031 239.191 20.1935C239.856 19.6303 240.599 19.2975 241.418 19.1951C242.263 19.0927 243.056 19.1951 243.799 19.5023Z" fill="white"/>
</svg>
