<svg width="219" height="36" viewBox="0 0 219 36" fill="none" xmlns="http://www.w3.org/2000/svg">
<path d="M20.0059 3.304L27.2699 24.744C27.5685 25.6187 27.6752 26.4933 27.5899 27.368C27.5259 28.2213 27.3019 29.0213 26.9179 29.768C26.5552 30.536 26.0432 31.208 25.3819 31.784C24.7419 32.3813 23.9952 32.8293 23.1419 33.128C22.2672 33.4267 21.3925 33.5333 20.5179 33.448C19.6432 33.384 18.8219 33.16 18.0539 32.776C17.3072 32.4133 16.6352 31.9013 16.0379 31.24C15.4619 30.6 15.0245 29.8427 14.7259 28.968C14.4912 28.2213 14.3739 27.496 14.3739 26.792L14.6299 4.168C14.6299 3.4 14.8965 2.74933 15.4299 2.216C15.9845 1.68267 16.6459 1.416 17.4139 1.416C18.0325 1.43733 18.5659 1.61867 19.0139 1.96C19.4832 2.30133 19.8139 2.74933 20.0059 3.304ZM10.3419 4.008L12.0059 26.472C12.0699 27.2613 11.9739 28.0187 11.7179 28.744C11.4619 29.4693 11.0885 30.1093 10.5979 30.664C10.1285 31.2187 9.55254 31.6667 8.86987 32.008C8.18721 32.3707 7.45121 32.584 6.66188 32.648C5.85121 32.712 5.08321 32.616 4.35788 32.36C3.65388 32.1253 3.01388 31.7627 2.43788 31.272C1.88321 30.7813 1.42454 30.1947 1.06188 29.512C0.720542 28.8507 0.517875 28.1147 0.453875 27.304C0.411208 26.792 0.443208 26.28 0.549875 25.768L4.90188 3.688C4.96588 3.304 5.10454 2.96267 5.31788 2.664C5.53121 2.36533 5.77654 2.12 6.05388 1.928C6.35254 1.736 6.67254 1.608 7.01388 1.544C7.37654 1.45867 7.74988 1.448 8.13388 1.512C8.75254 1.64 9.26454 1.93867 9.66988 2.408C10.0752 2.87733 10.2992 3.41067 10.3419 4.008ZM18.7899 20.648L8.19788 18.824C7.57921 18.7173 7.08854 18.4187 6.72588 17.928C6.38454 17.416 6.26721 16.8507 6.37388 16.232C6.45921 15.7413 6.67254 15.336 7.01388 15.016C7.35521 14.696 7.74988 14.4933 8.19788 14.408L18.7899 12.584C19.3445 12.4987 19.8779 12.52 20.3899 12.648C20.9232 12.7547 21.4032 12.968 21.8299 13.288C22.2565 13.5867 22.6085 13.96 22.8859 14.408C23.1845 14.856 23.3872 15.3573 23.4939 15.912C23.5792 16.4667 23.5579 17.0107 23.4299 17.544C23.3232 18.0773 23.1205 18.5573 22.8219 18.984C22.5232 19.4107 22.1392 19.7733 21.6699 20.072C21.2219 20.3707 20.7205 20.5627 20.1659 20.648C19.6965 20.712 19.2379 20.712 18.7899 20.648ZM44.7124 10.824L50.3764 25.768C50.6537 26.5573 50.771 27.3467 50.7284 28.136C50.707 28.9253 50.5364 29.672 50.2164 30.376C49.8964 31.08 49.4484 31.7093 48.8724 32.264C48.2964 32.8187 47.6244 33.2453 46.8564 33.544C46.0884 33.8427 45.299 33.9707 44.4884 33.928C43.699 33.9067 42.9524 33.736 42.2484 33.416C41.5444 33.096 40.915 32.648 40.3604 32.072C39.8057 31.496 39.379 30.824 39.0804 30.056C38.739 29.1173 38.6217 28.2 38.7284 27.304L40.3604 11.4C40.4244 10.7813 40.691 10.28 41.1604 9.896C41.651 9.49067 42.2057 9.32 42.8244 9.384C43.2724 9.42667 43.6564 9.58667 43.9764 9.864C44.3177 10.12 44.563 10.44 44.7124 10.824ZM36.4244 12.104L36.1364 12.968C36.0937 13.1173 36.0404 13.256 35.9764 13.384C35.9337 13.512 35.891 13.6507 35.8484 13.8C35.8057 13.9493 35.763 14.0987 35.7204 14.248C35.6777 14.376 35.635 14.5147 35.5924 14.664C35.5497 14.8133 35.507 14.952 35.4644 15.08C35.4217 15.208 35.379 15.3467 35.3364 15.496C35.187 16.008 35.059 16.5627 34.9524 17.16C34.8884 17.416 34.835 17.6827 34.7924 17.96C34.771 18.216 34.739 18.472 34.6964 18.728C34.675 18.856 34.6644 18.984 34.6644 19.112C34.6644 19.2187 34.6644 19.336 34.6644 19.464C34.643 19.72 34.643 19.9547 34.6644 20.168C34.6644 20.5733 34.7177 20.9893 34.8244 21.416C34.8457 21.5227 34.867 21.6187 34.8884 21.704C34.9097 21.768 34.9417 21.8427 34.9844 21.928C35.027 21.992 35.059 22.0667 35.0804 22.152C35.1017 22.216 35.1337 22.2693 35.1764 22.312C35.283 22.5253 35.4324 22.7067 35.6244 22.856C35.667 22.8987 35.7097 22.9307 35.7524 22.952C35.795 22.9733 35.8377 23.0053 35.8804 23.048C35.923 23.0693 36.0084 23.1013 36.1364 23.144C36.2217 23.208 36.3177 23.24 36.4244 23.24L36.7124 23.336C36.819 23.3573 36.9364 23.368 37.0644 23.368C37.1924 23.368 37.3204 23.3787 37.4484 23.4C37.555 23.4 37.6724 23.4 37.8004 23.4C37.9497 23.3787 38.0777 23.3573 38.1844 23.336C38.3124 23.3147 38.4297 23.2933 38.5364 23.272C38.6644 23.2507 38.7817 23.2187 38.8884 23.176C38.995 23.1333 39.0804 23.1013 39.1444 23.08C39.2297 23.0373 39.2937 23.0053 39.3364 22.984C39.4217 22.9413 39.475 22.92 39.4964 22.92H39.5924C39.6137 22.92 39.635 22.9307 39.6564 22.952C39.699 22.952 39.7524 22.9413 39.8164 22.92L44.6164 21.64C45.5124 21.4053 46.3444 21.512 47.1124 21.96C47.9017 22.408 48.4137 23.08 48.6484 23.976C48.7764 24.488 48.7977 24.9787 48.7124 25.448C48.6697 25.5973 48.627 25.7467 48.5844 25.896C48.563 26.024 48.531 26.1627 48.4884 26.312C48.467 26.3973 48.4457 26.472 48.4244 26.536C48.403 26.6 48.371 26.6747 48.3284 26.76C48.2857 26.888 48.2324 27.0267 48.1684 27.176C47.891 27.7947 47.5924 28.3387 47.2724 28.808C46.8884 29.32 46.4937 29.768 46.0884 30.152C45.8537 30.3653 45.619 30.5573 45.3844 30.728C45.171 30.92 44.947 31.1013 44.7124 31.272C44.243 31.5707 43.7524 31.8267 43.2404 32.04C42.7497 32.2747 42.259 32.4773 41.7684 32.648C40.787 32.9253 39.7737 33.0853 38.7284 33.128C37.7257 33.1707 36.723 33.0747 35.7204 32.84C34.7177 32.648 33.7577 32.296 32.8404 31.784C32.6057 31.6773 32.3817 31.5493 32.1684 31.4C31.955 31.272 31.731 31.1333 31.4964 30.984C31.283 30.8133 31.0697 30.6427 30.8564 30.472C30.6644 30.3013 30.4724 30.12 30.2804 29.928C29.8537 29.544 29.491 29.1387 29.1924 28.712C28.8724 28.3067 28.5844 27.8587 28.3284 27.368C28.0724 26.8773 27.859 26.3973 27.6884 25.928C27.539 25.4373 27.411 24.9467 27.3044 24.456C27.2617 24.2 27.219 23.9547 27.1764 23.72C27.155 23.4853 27.1444 23.2507 27.1444 23.016C27.123 22.5467 27.123 22.088 27.1444 21.64C27.1657 21.192 27.2084 20.7547 27.2724 20.328C27.3364 19.9013 27.4217 19.496 27.5284 19.112C27.5924 18.8987 27.6457 18.696 27.6884 18.504C27.7524 18.312 27.8164 18.1307 27.8804 17.96C27.9444 17.768 28.0084 17.5867 28.0724 17.416C28.1577 17.224 28.2324 17.0427 28.2964 16.872C28.595 16.168 28.9257 15.5067 29.2884 14.888C29.6724 14.248 30.067 13.6507 30.4724 13.096C30.579 12.9467 30.6857 12.808 30.7924 12.68C30.899 12.5307 31.0057 12.3813 31.1124 12.232C31.219 12.104 31.3257 11.976 31.4324 11.848C31.539 11.72 31.6457 11.5813 31.7524 11.432L32.4244 10.664L32.6164 10.504L32.7764 10.312L32.9684 10.12L33.0644 10.024L33.1284 9.96C33.5337 9.576 34.0137 9.384 34.5684 9.384C35.123 9.384 35.5924 9.58667 35.9764 9.992C36.275 10.2907 36.4564 10.6213 36.5204 10.984C36.5844 11.3467 36.563 11.7093 36.4564 12.072L36.4244 12.104ZM49.8334 26.088L53.0654 11.528C53.1507 11.1653 53.3 10.8347 53.5134 10.536C53.7267 10.2373 53.972 10.0027 54.2494 9.832C54.548 9.64 54.8787 9.512 55.2414 9.448C55.604 9.36267 55.9667 9.36267 56.3294 9.448C56.7774 9.55467 57.1614 9.74667 57.4814 10.024C57.8227 10.3013 58.0787 10.632 58.2494 11.016L64.2974 24.616C64.724 25.576 64.9374 26.568 64.9374 27.592C64.9587 28.616 64.788 29.5867 64.4254 30.504C64.084 31.4213 63.572 32.2533 62.8894 33C62.2067 33.7467 61.3854 34.3333 60.4254 34.76C59.4654 35.1867 58.4734 35.4 57.4494 35.4C56.4254 35.4213 55.4547 35.2507 54.5374 34.888C53.62 34.5467 52.788 34.024 52.0414 33.32C51.2947 32.6373 50.708 31.816 50.2814 30.856C49.94 30.0667 49.7374 29.2667 49.6734 28.456C49.6094 27.6453 49.6627 26.856 49.8334 26.088ZM64.9694 18.024C64.9907 18.0453 65.0014 18.0453 65.0014 18.024V17.96V17.8C65.0014 17.7573 64.9907 17.704 64.9694 17.64C64.9694 17.576 64.9694 17.5227 64.9694 17.48C64.948 17.3733 64.9267 17.2667 64.9054 17.16C64.884 17.032 64.852 16.9147 64.8094 16.808C64.788 16.7013 64.7667 16.6053 64.7454 16.52C64.724 16.4347 64.692 16.3387 64.6494 16.232C64.564 16.0187 64.5 15.8693 64.4574 15.784L64.2974 15.464C64.212 15.336 64.1374 15.24 64.0734 15.176C64.0094 15.112 63.892 15.048 63.7214 14.984C63.508 14.9413 63.316 14.92 63.1454 14.92C62.932 14.92 62.6974 14.952 62.4414 15.016C62.292 15.0587 62.1534 15.1013 62.0254 15.144C61.8974 15.1867 61.7587 15.2293 61.6094 15.272C61.0334 15.5067 60.468 15.7947 59.9134 16.136C59.6147 16.3067 59.3267 16.488 59.0494 16.68C58.7934 16.872 58.516 17.0747 58.2174 17.288C57.6627 17.7147 57.1187 18.1627 56.5854 18.632C56.3934 18.8027 56.1694 18.8773 55.9134 18.856C55.6574 18.8347 55.444 18.728 55.2734 18.536C54.996 18.216 54.964 17.864 55.1774 17.48C55.5187 16.84 55.9027 16.2 56.3294 15.56C56.5427 15.24 56.756 14.92 56.9694 14.6C57.204 14.28 57.4387 13.9707 57.6734 13.672C57.9294 13.3733 58.196 13.0747 58.4734 12.776C58.7507 12.4773 59.0494 12.1787 59.3694 11.88C59.732 11.56 60.084 11.2827 60.4254 11.048C60.8094 10.7707 61.2254 10.5253 61.6734 10.312C62.0787 10.12 62.58 9.94933 63.1774 9.8C63.796 9.672 64.3934 9.61867 64.9694 9.64C65.6307 9.704 66.2494 9.832 66.8254 10.024C67.124 10.1307 67.412 10.2587 67.6894 10.408C67.9667 10.536 68.2334 10.6853 68.4894 10.856C69.0014 11.1973 69.4387 11.5493 69.8014 11.912C70.0147 12.104 70.2067 12.296 70.3774 12.488C70.548 12.68 70.7187 12.872 70.8894 13.064C71.2094 13.4907 71.4974 13.9067 71.7534 14.312C71.9027 14.5467 72.0307 14.7707 72.1374 14.984C72.18 15.048 72.244 15.1653 72.3294 15.336L72.4254 15.528C72.4467 15.5493 72.4574 15.5707 72.4574 15.592C72.4574 15.592 72.468 15.6027 72.4894 15.624V15.688L72.5214 15.72V15.752C72.7774 16.2427 72.916 16.7547 72.9374 17.288C72.98 17.8213 72.916 18.3333 72.7454 18.824C72.596 19.2933 72.3507 19.7307 72.0094 20.136C71.668 20.5413 71.252 20.872 70.7614 21.128C70.2707 21.384 69.7587 21.5333 69.2254 21.576C68.7134 21.5973 68.212 21.5333 67.7214 21.384C67.2307 21.2133 66.7827 20.968 66.3774 20.648C65.972 20.3067 65.6414 19.8907 65.3854 19.4C65.172 18.9733 65.0334 18.5253 64.9694 18.056V18.024ZM71.5834 26.088L74.8154 11.528C74.9007 11.1653 75.05 10.8347 75.2634 10.536C75.4767 10.2373 75.722 10.0027 75.9994 9.832C76.298 9.64 76.6287 9.512 76.9914 9.448C77.354 9.36267 77.7167 9.36267 78.0794 9.448C78.5274 9.55467 78.9114 9.74667 79.2314 10.024C79.5727 10.3013 79.8287 10.632 79.9994 11.016L86.0474 24.616C86.474 25.576 86.6874 26.568 86.6874 27.592C86.7087 28.616 86.538 29.5867 86.1754 30.504C85.834 31.4213 85.322 32.2533 84.6394 33C83.9567 33.7467 83.1354 34.3333 82.1754 34.76C81.2154 35.1867 80.2234 35.4 79.1994 35.4C78.1754 35.4213 77.2047 35.2507 76.2874 34.888C75.37 34.5467 74.538 34.024 73.7914 33.32C73.0447 32.6373 72.458 31.816 72.0314 30.856C71.69 30.0667 71.4874 29.2667 71.4234 28.456C71.3594 27.6453 71.4127 26.856 71.5834 26.088ZM86.7194 18.024C86.7407 18.0453 86.7514 18.0453 86.7514 18.024V17.96V17.8C86.7514 17.7573 86.7407 17.704 86.7194 17.64C86.7194 17.576 86.7194 17.5227 86.7194 17.48C86.698 17.3733 86.6767 17.2667 86.6554 17.16C86.634 17.032 86.602 16.9147 86.5594 16.808C86.538 16.7013 86.5167 16.6053 86.4954 16.52C86.474 16.4347 86.442 16.3387 86.3994 16.232C86.314 16.0187 86.25 15.8693 86.2074 15.784L86.0474 15.464C85.962 15.336 85.8874 15.24 85.8234 15.176C85.7594 15.112 85.642 15.048 85.4714 14.984C85.258 14.9413 85.066 14.92 84.8954 14.92C84.682 14.92 84.4474 14.952 84.1914 15.016C84.042 15.0587 83.9034 15.1013 83.7754 15.144C83.6474 15.1867 83.5087 15.2293 83.3594 15.272C82.7834 15.5067 82.218 15.7947 81.6634 16.136C81.3647 16.3067 81.0767 16.488 80.7994 16.68C80.5434 16.872 80.266 17.0747 79.9674 17.288C79.4127 17.7147 78.8687 18.1627 78.3354 18.632C78.1434 18.8027 77.9194 18.8773 77.6634 18.856C77.4074 18.8347 77.194 18.728 77.0234 18.536C76.746 18.216 76.714 17.864 76.9274 17.48C77.2687 16.84 77.6527 16.2 78.0794 15.56C78.2927 15.24 78.506 14.92 78.7194 14.6C78.954 14.28 79.1887 13.9707 79.4234 13.672C79.6794 13.3733 79.946 13.0747 80.2234 12.776C80.5007 12.4773 80.7994 12.1787 81.1194 11.88C81.482 11.56 81.834 11.2827 82.1754 11.048C82.5594 10.7707 82.9754 10.5253 83.4234 10.312C83.8287 10.12 84.33 9.94933 84.9274 9.8C85.546 9.672 86.1434 9.61867 86.7194 9.64C87.3807 9.704 87.9994 9.832 88.5754 10.024C88.874 10.1307 89.162 10.2587 89.4394 10.408C89.7167 10.536 89.9834 10.6853 90.2394 10.856C90.7514 11.1973 91.1887 11.5493 91.5514 11.912C91.7647 12.104 91.9567 12.296 92.1274 12.488C92.298 12.68 92.4687 12.872 92.6394 13.064C92.9594 13.4907 93.2474 13.9067 93.5034 14.312C93.6527 14.5467 93.7807 14.7707 93.8874 14.984C93.93 15.048 93.994 15.1653 94.0794 15.336L94.1754 15.528C94.1967 15.5493 94.2074 15.5707 94.2074 15.592C94.2074 15.592 94.218 15.6027 94.2394 15.624V15.688L94.2714 15.72V15.752C94.5274 16.2427 94.666 16.7547 94.6874 17.288C94.73 17.8213 94.666 18.3333 94.4954 18.824C94.346 19.2933 94.1007 19.7307 93.7594 20.136C93.418 20.5413 93.002 20.872 92.5114 21.128C92.0207 21.384 91.5087 21.5333 90.9754 21.576C90.4634 21.5973 89.962 21.5333 89.4714 21.384C88.9807 21.2133 88.5327 20.968 88.1274 20.648C87.722 20.3067 87.3914 19.8907 87.1354 19.4C86.922 18.9733 86.7834 18.5253 86.7194 18.056V18.024ZM129.845 9.672L129.813 9.64H129.781V9.608H129.749L129.685 9.576C129.643 9.55467 129.611 9.544 129.589 9.544C129.568 9.544 129.547 9.53333 129.525 9.512C129.419 9.46933 129.301 9.42667 129.173 9.384C129.067 9.34133 128.949 9.29867 128.821 9.256C128.715 9.21333 128.608 9.17067 128.501 9.128C128.267 9.064 128.032 9.02133 127.797 9C127.584 8.95733 127.36 8.91467 127.125 8.872C126.891 8.85067 126.667 8.84 126.453 8.84C126.24 8.81867 126.016 8.81867 125.781 8.84L125.109 8.936C125.003 8.95733 124.896 8.97867 124.789 9C124.683 9 124.576 9.02133 124.469 9.064C123.659 9.27733 122.912 9.64 122.229 10.152C121.589 10.6427 121.056 11.208 120.629 11.848C120.416 12.168 120.235 12.4987 120.085 12.84C119.957 13.1813 119.84 13.5227 119.733 13.864C119.541 14.5467 119.445 15.2187 119.445 15.88C119.445 16.0507 119.445 16.2213 119.445 16.392C119.467 16.5413 119.488 16.7013 119.509 16.872C119.531 17.192 119.595 17.512 119.701 17.832C119.787 18.1307 119.893 18.4187 120.021 18.696C120.149 18.9733 120.299 19.2293 120.469 19.464C120.811 19.976 121.184 20.4027 121.589 20.744C121.995 21.128 122.443 21.448 122.933 21.704C123.125 21.8107 123.36 21.9173 123.637 22.024C123.765 22.088 123.893 22.1413 124.021 22.184C124.149 22.2053 124.277 22.2373 124.405 22.28C124.576 22.3227 124.715 22.3547 124.821 22.376C124.992 22.4187 125.131 22.44 125.237 22.44C125.387 22.4613 125.525 22.472 125.653 22.472C125.803 22.472 125.952 22.472 126.101 22.472C126.379 22.472 126.677 22.44 126.997 22.376C127.083 22.3547 127.232 22.3227 127.445 22.28C127.488 22.2587 127.52 22.248 127.541 22.248C127.584 22.248 127.627 22.2373 127.669 22.216C127.712 22.1947 127.744 22.184 127.765 22.184C127.808 22.184 127.851 22.1733 127.893 22.152C128.512 21.9387 129.131 21.6187 129.749 21.192C129.899 21.0853 130.048 20.9787 130.197 20.872C130.347 20.744 130.496 20.6053 130.645 20.456C130.923 20.2 131.189 19.9013 131.445 19.56C131.744 19.1973 131.989 18.8453 132.181 18.504C132.245 18.3973 132.299 18.3013 132.341 18.216C132.405 18.1093 132.469 18.0027 132.533 17.896C132.576 17.8533 132.597 17.8107 132.597 17.768C132.619 17.704 132.651 17.64 132.693 17.576L132.853 17.256L133.045 16.84C133.387 16.136 133.92 15.656 134.645 15.4C135.371 15.144 136.085 15.1867 136.789 15.528C137.195 15.72 137.515 15.9867 137.749 16.328C138.005 16.648 138.187 17.0107 138.293 17.416C138.464 18.1627 138.549 18.9307 138.549 19.72C138.571 20.488 138.517 21.2667 138.389 22.056C138.219 22.888 137.995 23.6773 137.717 24.424C137.419 25.2347 137.056 25.9707 136.629 26.632C136.203 27.3573 135.701 28.04 135.125 28.68C134.549 29.32 133.92 29.9067 133.237 30.44C133.024 30.6107 132.843 30.7493 132.693 30.856C132.608 30.92 132.523 30.9733 132.437 31.016C132.352 31.08 132.256 31.144 132.149 31.208C131.979 31.336 131.797 31.4533 131.605 31.56C131.413 31.6667 131.211 31.7733 130.997 31.88C130.613 32.0933 130.208 32.2747 129.781 32.424C129.355 32.5947 128.928 32.744 128.501 32.872C128.075 33 127.637 33.1067 127.189 33.192C126.763 33.2987 126.315 33.3733 125.845 33.416C125.397 33.48 124.949 33.512 124.501 33.512C124.267 33.512 124.032 33.512 123.797 33.512C123.584 33.512 123.36 33.5013 123.125 33.48C122.251 33.416 121.344 33.2667 120.405 33.032C119.509 32.776 118.645 32.456 117.813 32.072C116.981 31.688 116.192 31.2187 115.445 30.664C115.083 30.3867 114.731 30.0987 114.389 29.8C114.048 29.5013 113.717 29.192 113.397 28.872C112.117 27.528 111.125 26.0347 110.421 24.392C110.059 23.56 109.771 22.7173 109.557 21.864C109.344 21.0107 109.205 20.136 109.141 19.24C109.077 18.3653 109.077 17.5013 109.141 16.648C109.184 16.2213 109.237 15.7947 109.301 15.368C109.365 14.9413 109.451 14.5147 109.557 14.088C109.771 13.2347 110.048 12.424 110.389 11.656C110.752 10.8667 111.179 10.12 111.669 9.416C112.608 8.02933 113.76 6.84533 115.125 5.864C115.467 5.62933 115.808 5.40533 116.149 5.192C116.512 4.97867 116.875 4.776 117.237 4.584C117.92 4.24267 118.667 3.95467 119.477 3.72L120.629 3.432L121.781 3.24C121.995 3.21866 122.197 3.208 122.389 3.208C122.581 3.18667 122.773 3.16533 122.965 3.144H124.117C124.309 3.16533 124.501 3.18667 124.693 3.208C124.885 3.208 125.067 3.22933 125.237 3.272C125.643 3.31467 126.016 3.37867 126.357 3.464C127.083 3.61333 127.797 3.82667 128.501 4.104C128.864 4.25333 129.205 4.41333 129.525 4.584C129.845 4.75467 130.155 4.936 130.453 5.128C130.795 5.32 131.093 5.52267 131.349 5.736C131.413 5.77867 131.477 5.832 131.541 5.896C131.627 5.96 131.701 6.01333 131.765 6.056L131.957 6.248L132.085 6.344L132.117 6.376L132.149 6.408C132.576 6.792 132.789 7.26133 132.789 7.816C132.811 8.37067 132.64 8.85067 132.277 9.256C131.957 9.59733 131.573 9.81067 131.125 9.896C130.677 9.96 130.251 9.88533 129.845 9.672ZM151.092 8.52C152.842 8.52 154.484 8.85067 156.02 9.512C157.578 10.1733 158.932 11.08 160.084 12.232C161.236 13.384 162.143 14.7387 162.804 16.296C163.466 17.832 163.796 19.4747 163.796 21.224C163.796 22.9733 163.466 24.616 162.804 26.152C162.143 27.688 161.236 29.032 160.084 30.184C158.932 31.336 157.578 32.2427 156.02 32.904C154.484 33.5653 152.842 33.896 151.092 33.896C149.343 33.896 147.7 33.5653 146.164 32.904C144.628 32.2427 143.284 31.336 142.132 30.184C140.98 29.032 140.074 27.688 139.412 26.152C138.751 24.616 138.42 22.9733 138.42 21.224C138.42 19.4747 138.751 17.832 139.412 16.296C140.074 14.7387 140.98 13.384 142.132 12.232C143.284 11.08 144.628 10.1733 146.164 9.512C147.7 8.85067 149.343 8.52 151.092 8.52ZM151.54 19.592C152.223 19.592 152.863 19.5067 153.46 19.336C154.058 19.1653 154.58 18.9307 155.028 18.632C155.476 18.3333 155.828 17.9813 156.084 17.576C156.34 17.1707 156.468 16.744 156.468 16.296C156.468 15.848 156.34 15.4213 156.084 15.016C155.828 14.6107 155.476 14.2587 155.028 13.96C154.58 13.6613 154.058 13.4267 153.46 13.256C152.863 13.0853 152.223 13 151.54 13C150.858 13 150.218 13.0853 149.62 13.256C149.044 13.4267 148.532 13.6613 148.084 13.96C147.636 14.2587 147.284 14.6107 147.028 15.016C146.772 15.4213 146.644 15.848 146.644 16.296C146.644 16.744 146.772 17.1707 147.028 17.576C147.284 17.9813 147.636 18.3333 148.084 18.632C148.532 18.9307 149.044 19.1653 149.62 19.336C150.218 19.5067 150.858 19.592 151.54 19.592ZM176.53 8.52C178.279 8.52 179.922 8.85067 181.458 9.512C183.015 10.1733 184.37 11.08 185.522 12.232C186.674 13.384 187.581 14.7387 188.242 16.296C188.903 17.832 189.234 19.4747 189.234 21.224C189.234 22.9733 188.903 24.616 188.242 26.152C187.581 27.688 186.674 29.032 185.522 30.184C184.37 31.336 183.015 32.2427 181.458 32.904C179.922 33.5653 178.279 33.896 176.53 33.896C174.781 33.896 173.138 33.5653 171.602 32.904C170.066 32.2427 168.722 31.336 167.57 30.184C166.418 29.032 165.511 27.688 164.85 26.152C164.189 24.616 163.858 22.9733 163.858 21.224C163.858 19.4747 164.189 17.832 164.85 16.296C165.511 14.7387 166.418 13.384 167.57 12.232C168.722 11.08 170.066 10.1733 171.602 9.512C173.138 8.85067 174.781 8.52 176.53 8.52ZM176.978 19.592C177.661 19.592 178.301 19.5067 178.898 19.336C179.495 19.1653 180.018 18.9307 180.466 18.632C180.914 18.3333 181.266 17.9813 181.522 17.576C181.778 17.1707 181.906 16.744 181.906 16.296C181.906 15.848 181.778 15.4213 181.522 15.016C181.266 14.6107 180.914 14.2587 180.466 13.96C180.018 13.6613 179.495 13.4267 178.898 13.256C178.301 13.0853 177.661 13 176.978 13C176.295 13 175.655 13.0853 175.058 13.256C174.482 13.4267 173.97 13.6613 173.522 13.96C173.074 14.2587 172.722 14.6107 172.466 15.016C172.21 15.4213 172.082 15.848 172.082 16.296C172.082 16.744 172.21 17.1707 172.466 17.576C172.722 17.9813 173.074 18.3333 173.522 18.632C173.97 18.9307 174.482 19.1653 175.058 19.336C175.655 19.5067 176.295 19.592 176.978 19.592ZM201.455 4.168L202.703 26.728C202.746 27.688 202.607 28.5947 202.287 29.448C201.989 30.3013 201.541 31.0587 200.943 31.72C200.346 32.3813 199.642 32.9147 198.831 33.32C198.021 33.7253 197.135 33.96 196.175 34.024C195.215 34.0667 194.309 33.928 193.455 33.608C192.602 33.3093 191.845 32.8613 191.183 32.264C190.522 31.6667 189.989 30.9627 189.583 30.152C189.178 29.3413 188.943 28.456 188.879 27.496C188.837 26.8133 188.901 26.152 189.071 25.512L194.255 3.528C194.383 3.03733 194.586 2.6 194.863 2.216C195.162 1.832 195.503 1.52267 195.887 1.288C196.293 1.032 196.73 0.861333 197.199 0.775999C197.69 0.690666 198.181 0.701332 198.671 0.807999C199.482 0.999999 200.133 1.416 200.623 2.056C201.135 2.67467 201.413 3.37867 201.455 4.168ZM192.879 19.112L210.767 9.16C211.279 8.86133 211.813 8.79733 212.367 8.968C212.922 9.13867 213.349 9.48 213.647 9.992C213.882 10.376 213.967 10.792 213.903 11.24C213.861 11.6667 213.711 12.04 213.455 12.36L200.623 28.296C200.09 28.9573 199.461 29.4693 198.735 29.832C198.031 30.216 197.285 30.4507 196.495 30.536C195.727 30.6213 194.949 30.5573 194.159 30.344C193.391 30.1307 192.677 29.7573 192.015 29.224C191.354 28.6907 190.831 28.072 190.447 27.368C190.085 26.6427 189.861 25.896 189.775 25.128C189.69 24.3387 189.754 23.56 189.967 22.792C190.181 22.0027 190.554 21.2773 191.087 20.616C191.599 19.976 192.197 19.4747 192.879 19.112ZM203.087 16.552L213.999 21C214.853 21.3627 215.578 21.864 216.175 22.504C216.794 23.1227 217.263 23.8267 217.583 24.616C217.925 25.384 218.106 26.2053 218.127 27.08C218.149 27.9547 217.989 28.8187 217.647 29.672C217.285 30.5253 216.783 31.2507 216.143 31.848C215.525 32.4667 214.821 32.936 214.031 33.256C213.263 33.5973 212.442 33.768 211.567 33.768C210.693 33.7893 209.829 33.6293 208.975 33.288C208.485 33.0747 208.015 32.808 207.567 32.488C207.141 32.168 206.757 31.816 206.415 31.432L198.799 22.408C198.479 22.0027 198.245 21.5653 198.095 21.096C197.946 20.6267 197.893 20.1573 197.935 19.688C197.978 19.1973 198.106 18.7387 198.319 18.312C198.554 17.864 198.863 17.4693 199.247 17.128C199.802 16.6587 200.421 16.3813 201.103 16.296C201.807 16.2107 202.469 16.296 203.087 16.552Z" fill="#FF8800"/>
</svg>
