<svg width="24" height="22" viewBox="0 0 24 22" fill="none" xmlns="http://www.w3.org/2000/svg">
<path d="M11.5587 0C17.9441 0 23.1195 4.06491 23.1195 9.08059C23.1195 14.0952 17.9441 18.1601 11.5598 18.1601C10.9241 18.1589 10.2891 18.1182 9.65846 18.038L4.80556 21.2365C4.25399 21.5305 4.05913 21.4983 4.28592 20.7783L5.26795 16.6979C2.09727 15.0781 0 12.2713 0 9.08059C0 4.06602 5.17437 0 11.5598 0M18.0641 8.94192L19.6824 7.3621C19.7758 7.26437 19.8279 7.13393 19.8277 6.99826C19.8276 6.86259 19.7752 6.73228 19.6816 6.63478C19.5879 6.53728 19.4604 6.48019 19.3259 6.47556C19.1913 6.47092 19.0602 6.51909 18.9602 6.60992L16.8376 8.68009V6.96937C16.8376 6.83049 16.7829 6.6973 16.6854 6.5991C16.588 6.50089 16.4558 6.44572 16.318 6.44572C16.1802 6.44572 16.048 6.50089 15.9505 6.5991C15.8531 6.6973 15.7983 6.83049 15.7983 6.96937V9.80615C15.78 9.88721 15.78 9.97138 15.7983 10.0524V11.6489C15.7983 11.7878 15.8531 11.921 15.9505 12.0192C16.048 12.1174 16.1802 12.1725 16.318 12.1725C16.4558 12.1725 16.588 12.1174 16.6854 12.0192C16.7829 11.921 16.8376 11.7878 16.8376 11.6489V10.1368L17.3077 9.67857L18.8799 11.934C18.9191 11.9903 18.969 12.0383 19.0266 12.0752C19.0843 12.1121 19.1486 12.1372 19.2158 12.149C19.2831 12.1608 19.352 12.1592 19.4187 12.1442C19.4853 12.1292 19.5484 12.1012 19.6043 12.0616C19.6601 12.022 19.7077 11.9718 19.7443 11.9137C19.781 11.8556 19.8058 11.7908 19.8176 11.723C19.8294 11.6552 19.8277 11.5858 19.8129 11.5186C19.798 11.4515 19.7701 11.3879 19.7309 11.3316L18.0641 8.94192ZM14.8075 11.0764H13.2002V6.98601C13.194 6.85145 13.1366 6.72445 13.04 6.63141C12.9433 6.53838 12.8147 6.48646 12.6811 6.48646C12.5474 6.48646 12.4189 6.53838 12.3222 6.63141C12.2255 6.72445 12.1681 6.85145 12.162 6.98601V11.6001C12.162 11.8885 12.3932 12.1237 12.6805 12.1237H14.8075C14.9453 12.1237 15.0775 12.0686 15.175 11.9704C15.2724 11.8722 15.3272 11.739 15.3272 11.6001C15.3272 11.4612 15.2724 11.328 15.175 11.2298C15.0775 11.1316 14.9453 11.0764 14.8075 11.0764ZM8.35936 9.86606L9.12561 7.97118L9.828 9.86495L8.35936 9.86606ZM11.137 10.4063L11.1392 10.3886C11.1388 10.2567 11.0889 10.1298 10.9994 10.0336L9.84782 6.92721C9.79955 6.77918 9.70759 6.64952 9.58425 6.55555C9.4609 6.46158 9.31203 6.40779 9.15754 6.40135C9.00205 6.40128 8.85018 6.4486 8.72187 6.53711C8.59356 6.62561 8.49483 6.75116 8.43863 6.89726L6.60888 11.4181C6.55677 11.5467 6.55747 11.6909 6.61084 11.819C6.66421 11.947 6.76588 12.0485 6.89347 12.101C7.02107 12.1535 7.16415 12.1528 7.29123 12.099C7.41831 12.0452 7.51898 11.9428 7.5711 11.8142L7.93661 10.9122H10.2155L10.5436 11.7998C10.566 11.8661 10.6014 11.9273 10.6476 11.9796C10.6939 12.0319 10.7501 12.0743 10.8129 12.1044C10.8757 12.1344 10.9439 12.1514 11.0134 12.1544C11.0828 12.1574 11.1522 12.1463 11.2173 12.1218C11.2825 12.0973 11.3421 12.0599 11.3926 12.0117C11.4431 11.9636 11.4835 11.9057 11.5115 11.8416C11.5394 11.7774 11.5543 11.7082 11.5552 11.6382C11.5561 11.5681 11.5431 11.4986 11.5168 11.4337L11.137 10.4063ZM7.47862 6.99156C7.47891 6.9228 7.4657 6.85467 7.43976 6.79108C7.41382 6.72749 7.37565 6.66969 7.32746 6.62102C7.27926 6.57236 7.22199 6.53377 7.15894 6.50749C7.09589 6.48122 7.02831 6.46776 6.96008 6.46791H3.38756C3.24975 6.46791 3.11757 6.52308 3.02012 6.62128C2.92267 6.71949 2.86792 6.85268 2.86792 6.99156C2.86792 7.13044 2.92267 7.26363 3.02012 7.36183C3.11757 7.46003 3.24975 7.5152 3.38756 7.5152H4.66464V11.66C4.66464 11.7989 4.71939 11.9321 4.81684 12.0303C4.91429 12.1285 5.04646 12.1836 5.18428 12.1836C5.3221 12.1836 5.45427 12.1285 5.55172 12.0303C5.64917 11.9321 5.70392 11.7989 5.70392 11.66V7.5152H6.95898C7.0273 7.5155 7.095 7.50215 7.15818 7.47594C7.22136 7.44973 7.27876 7.41117 7.32707 7.36249C7.37538 7.3138 7.41365 7.25596 7.43966 7.19229C7.46567 7.12863 7.47891 7.06041 7.47862 6.99156Z" fill="#452020"/>
<ellipse cx="11.4532" cy="9.39268" rx="10.6053" ry="5.51475" fill="#452020"/>
</svg>
