<svg width="25" height="25" viewBox="0 0 25 25" fill="none" xmlns="http://www.w3.org/2000/svg">
<path d="M20.7156 13.0531L22.1281 14.3109C22.3889 14.5286 22.5632 14.8325 22.6194 15.1675C22.6756 15.5026 22.6099 15.8467 22.4343 16.1375L20.7312 19.0469C20.5991 19.2696 20.4104 19.4534 20.1844 19.5797C19.9556 19.7062 19.6989 19.7734 19.4375 19.775C19.2753 19.776 19.114 19.7517 18.9594 19.7031L17.1515 19.1062C16.8349 19.3094 16.5057 19.4911 16.164 19.6516L15.7844 21.4844C15.7141 21.8215 15.5264 22.1228 15.2547 22.3344C14.9795 22.5498 14.6384 22.6635 14.289 22.6562H10.7625C10.4131 22.6635 10.072 22.5498 9.79685 22.3344C9.52572 22.1225 9.33858 21.8213 9.26873 21.4844L8.88748 19.6516C8.55029 19.489 8.22314 19.3064 7.90779 19.1047L6.09373 19.7031C5.93905 19.7517 5.77774 19.776 5.6156 19.775C5.35476 19.7731 5.09853 19.706 4.87029 19.5797C4.64441 19.4538 4.45576 19.2706 4.32341 19.0484L2.55935 16.1375C2.37596 15.844 2.30588 15.4937 2.36226 15.1523C2.41864 14.8109 2.5976 14.5017 2.8656 14.2828L4.27654 12.5V11.9469L2.86404 10.6891C2.6032 10.4714 2.42892 10.1675 2.37274 9.83247C2.31656 9.49742 2.38221 9.15333 2.55779 8.86249L4.32185 5.95311C4.45398 5.73041 4.64265 5.54659 4.86873 5.4203C5.09697 5.294 5.35319 5.22686 5.61404 5.22499C5.77472 5.21485 5.93599 5.22961 6.09216 5.26874L7.87029 5.89374C8.188 5.69061 8.51716 5.50884 8.85779 5.34843L9.23904 3.51561C9.30889 3.17869 9.49604 2.87748 9.76716 2.66561C10.0423 2.45022 10.3834 2.33651 10.7328 2.34374H14.2297C14.579 2.33651 14.9201 2.45022 15.1953 2.66561C15.4687 2.87968 15.6562 3.18124 15.7234 3.51561L16.1047 5.34843C16.4432 5.50988 16.7698 5.69218 17.0844 5.8953L18.9 5.29843C19.1015 5.23287 19.3144 5.20986 19.5253 5.23084C19.7361 5.25182 19.9403 5.31633 20.125 5.4203C20.3515 5.54843 20.539 5.7328 20.6718 5.95155L22.4343 8.86249C22.6202 9.15346 22.6939 9.50212 22.6415 9.8434C22.5892 10.1847 22.4145 10.4953 22.15 10.7172L20.7156 11.9391V13.0531Z" stroke="black"/>
<path d="M16.4062 12.5C16.4062 13.536 15.9947 14.5296 15.2621 15.2621C14.5296 15.9947 13.536 16.4062 12.5 16.4062C11.464 16.4062 10.4704 15.9947 9.73786 15.2621C9.0053 14.5296 8.59375 13.536 8.59375 12.5C8.59375 11.464 9.0053 10.4704 9.73786 9.73786C10.4704 9.0053 11.464 8.59375 12.5 8.59375C13.536 8.59375 14.5296 9.0053 15.2621 9.73786C15.9947 10.4704 16.4062 11.464 16.4062 12.5Z" stroke="black"/>
</svg>
