<svg width="21" height="20" viewBox="0 0 21 20" fill="none" xmlns="http://www.w3.org/2000/svg">
<path d="M18.7499 9.99995H8.2999M16.5499 13.3L19.8499 9.99995L16.5499 6.69995M11.0499 4.49995V3.39995C11.0499 2.81647 10.8181 2.2569 10.4055 1.84432C9.99296 1.43174 9.43338 1.19995 8.8499 1.19995H3.3499C2.76643 1.19995 2.20685 1.43174 1.79427 1.84432C1.38169 2.2569 1.1499 2.81647 1.1499 3.39995V16.6C1.1499 17.1834 1.38169 17.743 1.79427 18.1556C2.20685 18.5682 2.76643 18.8 3.3499 18.8H8.8499C9.43338 18.8 9.99296 18.5682 10.4055 18.1556C10.8181 17.743 11.0499 17.1834 11.0499 16.6V15.5" stroke="#A7A7A7" stroke-width="1.8" stroke-linecap="round" stroke-linejoin="round"/>
</svg>
