<svg width="22" height="26" viewBox="0 0 22 26" fill="none" xmlns="http://www.w3.org/2000/svg">
<path fill-rule="evenodd" clip-rule="evenodd" d="M18.3333 4.89214C18.3333 4.56799 18.2046 4.25711 17.9754 4.0279C17.7461 3.79869 17.4353 3.66992 17.1111 3.66992C16.787 3.66992 16.4761 3.79869 16.2469 4.0279C16.0177 4.25711 15.8889 4.56799 15.8889 4.89214V6.11437H1.22222C0.898069 6.11437 0.587192 6.24314 0.357981 6.47235C0.128769 6.70156 0 7.01243 0 7.33659C0 7.66074 0.128769 7.97162 0.357981 8.20083C0.587192 8.43004 0.898069 8.55881 1.22222 8.55881H15.8889V9.78103C15.8889 10.1052 16.0177 10.4161 16.2469 10.6453C16.4761 10.8745 16.787 11.0033 17.1111 11.0033C17.4353 11.0033 17.7461 10.8745 17.9754 10.6453C18.2046 10.4161 18.3333 10.1052 18.3333 9.78103V8.55881H20.7778C21.1019 8.55881 21.4128 8.43004 21.642 8.20083C21.8712 7.97162 22 7.66074 22 7.33659C22 7.01243 21.8712 6.70156 21.642 6.47235C21.4128 6.24314 21.1019 6.11437 20.7778 6.11437H18.3333V4.89214ZM1.22222 13.4477C0.898069 13.4477 0.587192 13.5765 0.357981 13.8057C0.128769 14.0349 0 14.3458 0 14.6699C0 14.9941 0.128769 15.305 0.357981 15.5342C0.587192 15.7634 0.898069 15.8921 1.22222 15.8921H3.66667V17.1144C3.66667 17.4385 3.79544 17.7494 4.02465 17.9786C4.25386 18.2078 4.56474 18.3366 4.88889 18.3366C5.21304 18.3366 5.52392 18.2078 5.75313 17.9786C5.98234 17.7494 6.11111 17.4385 6.11111 17.1144V15.8921H20.7778C21.1019 15.8921 21.4128 15.7634 21.642 15.5342C21.8712 15.305 22 14.9941 22 14.6699C22 14.3458 21.8712 14.0349 21.642 13.8057C21.4128 13.5765 21.1019 13.4477 20.7778 13.4477H6.11111V12.2255C6.11111 11.9013 5.98234 11.5904 5.75313 11.3612C5.52392 11.132 5.21304 11.0033 4.88889 11.0033C4.56474 11.0033 4.25386 11.132 4.02465 11.3612C3.79544 11.5904 3.66667 11.9013 3.66667 12.2255V13.4477H1.22222ZM0 22.0033C0 21.6791 0.128769 21.3682 0.357981 21.139C0.587192 20.9098 0.898069 20.781 1.22222 20.781H15.8889V19.5588C15.8889 19.2347 16.0177 18.9238 16.2469 18.6946C16.4761 18.4654 16.787 18.3366 17.1111 18.3366C17.4353 18.3366 17.7461 18.4654 17.9754 18.6946C18.2046 18.9238 18.3333 19.2347 18.3333 19.5588V20.781H20.7778C21.1019 20.781 21.4128 20.9098 21.642 21.139C21.8712 21.3682 22 21.6791 22 22.0033C22 22.3274 21.8712 22.6383 21.642 22.8675C21.4128 23.0967 21.1019 23.2255 20.7778 23.2255H18.3333V24.4477C18.3333 24.7719 18.2046 25.0827 17.9754 25.3119C17.7461 25.5412 17.4353 25.6699 17.1111 25.6699C16.787 25.6699 16.4761 25.5412 16.2469 25.3119C16.0177 25.0827 15.8889 24.7719 15.8889 24.4477V23.2255H1.22222C0.898069 23.2255 0.587192 23.0967 0.357981 22.8675C0.128769 22.6383 0 22.3274 0 22.0033Z" fill="#383838"/>
</svg>
