<svg width="21" height="27" viewBox="0 0 21 27" fill="none" xmlns="http://www.w3.org/2000/svg">
<path d="M14.0084 1.88285C14.6007 1.29039 15.3962 0.945382 16.2335 0.917806C17.0708 0.890229 17.8873 1.18215 18.5173 1.73435L18.6757 1.88285L19.4534 2.66055C20.0455 3.25281 20.3903 4.04807 20.4179 4.88512C20.4455 5.72217 20.1538 6.5384 19.6019 7.16835L19.4534 7.32675L7.12017 19.6611C6.94579 19.8354 6.73454 19.9685 6.50197 20.0505L6.32377 20.1021L1.42437 21.233C1.2527 21.2729 1.07395 21.271 0.903176 21.2274C0.732401 21.1838 0.574599 21.0998 0.44306 20.9825C0.31152 20.8652 0.210094 20.718 0.147324 20.5533C0.0845527 20.3886 0.0622747 20.2113 0.0823658 20.0362L0.104366 19.9119L1.23407 15.0114C1.28987 14.771 1.39888 14.5462 1.55307 14.3536L1.67517 14.2161L14.0084 1.88285ZM13.2307 5.77135L3.34167 15.6604L2.64207 18.6942L5.67587 17.9935L15.5649 8.10445L13.2307 5.77135ZM17.1203 3.43825C16.9309 3.24886 16.6788 3.13508 16.4115 3.11827C16.1442 3.10146 15.8799 3.18277 15.6683 3.34695L15.5649 3.43825L14.7861 4.21595L17.1203 6.54905L17.898 5.77135C18.0874 5.58194 18.2011 5.32993 18.2179 5.0626C18.2348 4.79527 18.1534 4.53099 17.9893 4.31935L17.898 4.21595L17.1203 3.43825Z" fill="#383838"/>
</svg>
