<svg width="21" height="18" viewBox="0 0 21 18" fill="none" xmlns="http://www.w3.org/2000/svg">
<path d="M0 5.8352C2.14692e-05 4.65804 0.354472 3.50857 1.01654 2.53862C1.6786 1.56867 2.61713 0.823857 3.70818 0.402563C4.79922 -0.0187302 5.99145 -0.0966888 7.12739 0.178984C8.26334 0.454656 9.28956 1.07099 10.0705 1.94658C10.1255 2.00584 10.192 2.05308 10.2659 2.08537C10.3398 2.11767 10.4194 2.13433 10.5 2.13433C10.5805 2.13433 10.6602 2.11767 10.734 2.08537C10.8079 2.05308 10.8744 2.00584 10.9294 1.94658C11.7079 1.0653 12.7344 0.443785 13.8722 0.164764C15.01 -0.114258 16.2051 -0.0375533 17.2986 0.384669C18.392 0.806891 19.3319 1.5546 19.9931 2.52829C20.6543 3.50198 21.0055 4.65545 20.9999 5.8352C20.9999 8.25765 19.4249 10.0665 17.8499 11.6533L12.0834 17.2736C11.8877 17.5 11.6465 17.6818 11.3757 17.8071C11.1049 17.9323 10.8108 17.9981 10.5129 18C10.2149 18.0019 9.92 17.9399 9.64767 17.8181C9.37534 17.6963 9.13185 17.5176 8.93337 17.2937L3.14999 11.6533C1.575 10.0665 0 8.26822 0 5.8352Z" fill="url(#paint0_linear_118_1548)"/>
<defs>
<linearGradient id="paint0_linear_118_1548" x1="10.5" y1="0" x2="10.5" y2="18" gradientUnits="userSpaceOnUse">
<stop stop-color="#FF5C2B"/>
<stop offset="1" stop-color="#FF2600"/>
</linearGradient>
</defs>
</svg>
