<svg width="23" height="20" viewBox="0 0 23 20" fill="none" xmlns="http://www.w3.org/2000/svg">
<path d="M1 6.8352C1.00002 5.65804 1.35447 4.50857 2.01654 3.53862C2.6786 2.56867 3.61713 1.82386 4.70818 1.40256C5.79922 0.98127 6.99145 0.903311 8.12739 1.17898C9.26333 1.45466 10.2896 2.07099 11.0705 2.94658C11.1255 3.00584 11.192 3.05308 11.2659 3.08537C11.3398 3.11767 11.4194 3.13433 11.5 3.13433C11.5805 3.13433 11.6602 3.11767 11.734 3.08537C11.8079 3.05308 11.8744 3.00584 11.9294 2.94658C12.7079 2.0653 13.7344 1.44379 14.8722 1.16476C16.01 0.885742 17.2051 0.962447 18.2986 1.38467C19.392 1.80689 20.3319 2.5546 20.9931 3.52829C21.6543 4.50198 22.0055 5.65545 21.9999 6.8352C21.9999 9.25765 20.4249 11.0665 18.8499 12.6533L13.0834 18.2736C12.8877 18.5 12.6465 18.6818 12.3757 18.8071C12.1049 18.9323 11.8108 18.9981 11.5129 19C11.2149 19.0019 10.92 18.9399 10.6477 18.8181C10.3753 18.6963 10.1319 18.5176 9.93337 18.2937L4.14999 12.6533C2.575 11.0665 1 9.26822 1 6.8352Z" stroke="#BEBEBE" stroke-width="1.5" stroke-linecap="round" stroke-linejoin="round"/>
</svg>
