<svg width="22" height="22" viewBox="0 0 22 22" fill="none" xmlns="http://www.w3.org/2000/svg">
<path d="M8.47354 15.4004L17.6545 19.0128C17.8088 19.0737 17.9735 19.096 18.1366 19.078C18.2996 19.06 18.457 19.0021 18.5971 18.9086C18.7373 18.815 18.8566 18.6882 18.9465 18.5375C19.0364 18.3867 19.0945 18.2157 19.1165 18.0371L20.9895 2.46325C21.1035 1.51505 20.2105 0.807753 19.4225 1.22025L1.62354 10.5659C0.74354 11.0279 0.80954 12.4249 1.72954 12.7846L4.16954 13.7394L5.49954 14.2531M11.9995 16.7864L10.0095 20.445C9.35954 21.3338 8.05054 20.8311 8.05054 19.6937V16.7644C8.05057 16.2116 8.23979 15.6791 8.58054 15.2728L12.4515 10.6528" stroke="#383838" stroke-width="2" stroke-linecap="round" stroke-linejoin="round"/>
</svg>
