<svg width="23" height="22" viewBox="0 0 23 22" fill="none" xmlns="http://www.w3.org/2000/svg">
<path d="M12.1177 1H10.2323C9.4832 1 9.1081 1 8.7682 1.1034C8.4668 1.1947 8.1863 1.3454 7.9432 1.5445C7.6682 1.77 7.4614 2.0824 7.0456 2.7061L5.7883 4.5915C4.1119 4.5915 3.2737 4.5915 2.6335 4.9171C2.07058 5.20446 1.61311 5.6627 1.3267 6.2261C1 6.8652 1 7.7034 1 9.3798V15.5959C1 17.2723 1 18.1105 1.3267 18.7507C1.6127 19.3139 2.0714 19.7715 2.6335 20.0586C3.2737 20.3842 4.1119 20.3842 5.7883 20.3842H16.5617C18.2381 20.3842 19.0763 20.3842 19.7165 20.0586C20.2794 19.7712 20.7369 19.313 21.0233 18.7496C21.35 18.1105 21.35 17.2723 21.35 15.5959V9.3798C21.35 7.7034 21.35 6.8652 21.0233 6.225C20.7367 5.662 20.2793 5.20417 19.7165 4.9171C19.0763 4.5915 18.2381 4.5915 16.5617 4.5915L15.3044 2.7061C14.8886 2.0824 14.6807 1.7711 14.4068 1.5445C14.1631 1.34521 13.8829 1.19537 13.5818 1.1034C13.2419 1 12.8668 1 12.1177 1Z" stroke="#383838" stroke-width="1.65" stroke-linecap="round" stroke-linejoin="round"/>
<path d="M15.3275 12.0253C15.3275 12.5706 15.2201 13.1106 15.0114 13.6144C14.8027 14.1182 14.4968 14.576 14.1112 14.9616C13.7256 15.3472 13.2679 15.653 12.7641 15.8617C12.2602 16.0704 11.7203 16.1778 11.175 16.1778C10.6296 16.1778 10.0897 16.0704 9.58587 15.8617C9.08206 15.653 8.6243 15.3472 8.2387 14.9616C7.8531 14.576 7.54723 14.1182 7.33855 13.6144C7.12987 13.1106 7.02246 12.5706 7.02246 12.0253C7.02246 10.924 7.45996 9.86779 8.2387 9.08904C9.01744 8.3103 10.0736 7.8728 11.175 7.8728C12.2763 7.8728 13.3325 8.3103 14.1112 9.08904C14.89 9.86779 15.3275 10.924 15.3275 12.0253Z" stroke="#383838" stroke-width="1.65" stroke-linecap="round" stroke-linejoin="round"/>
</svg>
